<svg xmlns="http://www.w3.org/2000/svg" width="438.68" height="147.42" viewBox="0 0 438.68 147.42">
  <g id="Group_366" data-name="Group 366" transform="translate(-466 -368)">
    <g id="Group_365" data-name="Group 365" transform="translate(0 0.42)">
      <circle id="Ellipse_4" data-name="Ellipse 4" cx="73.71" cy="73.71" r="73.71" transform="translate(466 367.58)" fill="#f6df19"/>
      <path id="Path_12" data-name="Path 12" d="M29,77.8H43.23v4.66a7.58,7.58,0,0,0,1,4.37,3.7,3.7,0,0,0,3.16,1.27,3.69,3.69,0,0,0,3.3-1.39q1-1.39,1-5.34V49.29H67.68V83q0,8.68-5.06,13.22t-14.73,4.54q-9.55,0-14.29-4.83T28.87,81.37c0-.73.05-1.85.14-3.37Z" transform="translate(466 367.58)" fill="#231f20"/>
      <path id="Path_13" data-name="Path 13" d="M74.59,83.78H90.23a6.35,6.35,0,0,0,2.35,3.91,8.83,8.83,0,0,0,5.07,1.19,8.71,8.71,0,0,0,4.44-1,3,3,0,0,0,1.61-2.67c0-1.82-2.25-3.29-6.76-4.43l-2.08-.51q-5.55-1.43-8.83-2.6a22.14,22.14,0,0,1-4.77-2.19,13.56,13.56,0,0,1-4.34-5A14.5,14.5,0,0,1,75.47,64a13.87,13.87,0,0,1,5.62-11.7Q86.7,48,96.53,48q9.66,0,15.2,4.07A15.552,15.552,0,0,1,118,63.71H102.72a4.72,4.72,0,0,0-2-3.29,7.83,7.83,0,0,0-4.5-1.09,6.93,6.93,0,0,0-3.85.85,2.9,2.9,0,0,0-1.26,2.58q0,2.49,6.6,4.15a9.1,9.1,0,0,0,.89.24l2.89.71q8.73,2.22,11.43,4a14.38,14.38,0,0,1,4.86,5,13.8,13.8,0,0,1,1.53,6.67q0,8.3-5.8,12.75T96.9,100.74q-10,0-15.8-4.46A16.86,16.86,0,0,1,74.59,83.78Z" transform="translate(466 367.58)" fill="#231f20"/>
    </g>
    <g id="Group_364" data-name="Group 364" transform="translate(6 5.236)">
      <g id="Group_362" data-name="Group 362" transform="translate(15.48 1)">
        <path id="Path_14" data-name="Path 14" d="M176.379,37.824c-4.128.476-4.669.836-4.669,5.8V63.109c0,6.855-.643,12.591-6.251,17.015a20.733,20.733,0,0,1-7.331,3.6l-.939-2.238a8.823,8.823,0,0,0,5.672-7.267,73.094,73.094,0,0,0,.643-11.344V43.585c0-4.964-.592-5.376-5.145-5.8V35.65h18.006Z" transform="translate(461.055 353.95)"/>
        <path id="Path_15" data-name="Path 15" d="M194.048,72.2a5.466,5.466,0,0,1-3.665-1.286,6.186,6.186,0,0,1-1.543-2.186c-2.238,1.466-5.145,3.421-6.251,3.421a7.717,7.717,0,0,1-8.038-7.614c0-3.138,1.415-4.553,4.553-5.8,3.485-1.286,8.141-2.714,9.5-3.858V52.3c0-3.074-1.119-4.784-3.665-4.784a2.894,2.894,0,0,0-2.354,1.183,11.125,11.125,0,0,0-1.428,3.858,2.328,2.328,0,0,1-2.572,2.006,3.6,3.6,0,0,1-3.46-3.01c0-1.067.707-1.839,2.071-2.778a28.874,28.874,0,0,1,9.5-4.219,10.418,10.418,0,0,1,6.1,1.711c2.572,1.775,3.241,4.244,3.241,7.267V63.75c0,2.842.952,3.55,1.891,3.55a4.488,4.488,0,0,0,1.839-.476l.643,2.006Zm-5.44-14.881L185.3,59.146c-1.839.939-2.894,2.006-2.894,4.013,0,3.318,2.3,4.489,3.6,4.489a3.305,3.305,0,0,0,2.572-.939Z" transform="translate(466.022 356.498)"/>
        <path id="Path_16" data-name="Path 16" d="M224.108,47.116c-3.19.527-3.665,1.183-4.9,3.961-2.071,4.72-5.145,11.987-8.694,20.9h-2.469c-2.958-7.318-5.672-14.289-8.514-21.08-1.067-2.572-1.646-3.254-4.72-3.781V45.11h14.765v2.006c-2.662.527-3.01,1-2.3,2.945,1.479,4.077,3.6,9.749,4.54,12.18,1.016-2.572,3.022-7.717,4.373-11.82.592-1.775.476-2.894-3.19-3.305V45.11h11.112Z" transform="translate(471.819 356.657)"/>
        <path id="Path_17" data-name="Path 17" d="M239.018,72.195a5.466,5.466,0,0,1-3.665-1.286,6.186,6.186,0,0,1-1.543-2.186c-2.238,1.466-5.145,3.421-6.251,3.421a7.717,7.717,0,0,1-8.038-7.614c0-3.138,1.415-4.553,4.553-5.8,3.485-1.286,8.141-2.714,9.5-3.858V52.3c0-3.074-1.119-4.784-3.665-4.784a2.894,2.894,0,0,0-2.354,1.183,11.382,11.382,0,0,0-1.428,3.858,2.328,2.328,0,0,1-2.572,2.006,3.614,3.614,0,0,1-3.421-3.01c0-1.067.707-1.839,2.071-2.778a28.809,28.809,0,0,1,9.453-4.193,10.392,10.392,0,0,1,6.083,1.711c2.572,1.775,3.241,4.244,3.241,7.267V63.77c0,2.842.952,3.55,1.891,3.55a4.489,4.489,0,0,0,1.839-.476l.643,2.006Zm-5.44-14.881-3.305,1.826c-1.826.939-2.894,2.006-2.894,4.013,0,3.318,2.3,4.489,3.6,4.489a3.305,3.305,0,0,0,2.572-.939Z" transform="translate(478.889 356.504)"/>
        <path id="Path_18" data-name="Path 18" d="M264.879,45.572c-1.183-3.781-2.829-8.09-8.27-8.09a5.44,5.44,0,0,0-5.672,5.736c0,3.241,2.186,5.145,7.382,7.794,6.328,3.125,10.289,6.2,10.289,12.051,0,6.971-5.788,12.051-14.237,12.051a33.89,33.89,0,0,1-9.929-1.839c-.347-1.35-1.35-7.5-1.762-10.289l2.3-.527c1.183,3.717,4.489,10.16,10.289,10.16,3.6,0,5.788-2.251,5.788-6.032,0-3.421-2.122-5.427-7.087-8.09-6.148-3.305-10.16-6.263-10.16-12.4S248.7,35,257.56,35A43.33,43.33,0,0,1,266,36.067c.244,2.186.656,5.26,1.132,9Z" transform="translate(485.516 353.764)"/>
        <path id="Path_19" data-name="Path 19" d="M290.468,65.719c-2.727,3.858-6.675,6.431-10.289,6.431A12.475,12.475,0,0,1,267.24,59.456a14.148,14.148,0,0,1,6.019-11.292,17.247,17.247,0,0,1,10.289-3.653,9.17,9.17,0,0,1,5.145,1.415,2.456,2.456,0,0,1,1.132,2.186,3.755,3.755,0,0,1-2.662,3.305,1.826,1.826,0,0,1-1.286-.656c-2.572-2.122-4.553-3.061-6.148-3.061-2.3,0-5.145,2.238-5.145,8.617,0,7.858,5.736,10.392,8.27,10.392a8.81,8.81,0,0,0,6.328-2.469Z" transform="translate(492.543 356.485)"/>
        <path id="Path_20" data-name="Path 20" d="M303.738,71.52H288.15V69.514c3.125-.36,3.421-.656,3.421-4.193V52.383c0-2.958-.231-3.254-3.01-3.858V46.711A56.036,56.036,0,0,0,299.2,44.46v6.431c2.649-4.064,4.784-6.251,7.2-6.251a3.588,3.588,0,0,1,3.858,3.537,5.762,5.762,0,0,1-3.01,4.977,1.646,1.646,0,0,1-1.826-.3c-1-.836-1.775-1.775-2.778-1.775s-2.366.759-3.421,3.01V65.321c0,3.537.412,3.717,4.54,4.193Z" transform="translate(498.526 356.471)"/>
        <path id="Path_21" data-name="Path 21" d="M308.73,74.173V72.166c3.19-.412,3.537-.656,3.537-4.849V55.743c0-3.961-.3-4.206-3.074-4.553V49.3a65.13,65.13,0,0,0,10.7-2.122V67.318c0,4.013.232,4.437,3.653,4.849v2.006Zm6.907-30.6a4.3,4.3,0,0,1-4.257-4.193A4.231,4.231,0,0,1,315.7,35.19a4.141,4.141,0,0,1,4.244,4.193,4.231,4.231,0,0,1-4.309,4.193Z" transform="translate(504.415 353.819)"/>
        <path id="Path_22" data-name="Path 22" d="M323.332,46.749A99.255,99.255,0,0,0,334.2,44.1v4.244c.116,0,3.948-2.354,4.128-2.418a7.588,7.588,0,0,1,3.858-1.286c6.431,0,10.212,5.955,10.212,11.575,0,8.63-6.855,14.353-14.469,16.012a10.958,10.958,0,0,1-3.717-.527v7.087c0,3.305.3,3.665,4.373,4.193v1.942H322.74V83.083c3.6-.36,3.858-.887,3.858-4.141V52.6c0-3.19-.347-3.55-3.241-3.858ZM334.2,67.327a8.115,8.115,0,0,0,4.836,2.186c3.138,0,5.44-3.858,5.44-10.289,0-7.267-3.6-10.045-6.559-10.045a6.431,6.431,0,0,0-3.717,1.286Z" transform="translate(508.423 356.368)"/>
        <path id="Path_23" data-name="Path 23" d="M362.822,73.542a6.624,6.624,0,0,1-2.367.643c-4.54,0-7.267-2.122-7.267-7.5V50.2h-3.781l-.347-.707,1.711-2.238h2.418V42.34c2.006-1.415,4.9-3.305,6.971-4.72l.772.476c-.064,1.595-.18,4.72-.116,9.157h5.9a2.572,2.572,0,0,1-.476,2.945h-5.428V64.68c0,4.6,1.891,5.145,3.01,5.145a7.267,7.267,0,0,0,2.842-.592l.579,2.135Z" transform="translate(515.954 354.514)"/>
      </g>
      <g id="Group_363" data-name="Group 363" transform="translate(0 7)">
        <path id="Path_24" data-name="Path 24" d="M165.556,112.181H160.73V84.775h2.007a24.841,24.841,0,0,0,3.144-.148A35.473,35.473,0,0,1,170,84.48a15.835,15.835,0,0,1,3.749.428,8.855,8.855,0,0,1,3.04,1.358,6.523,6.523,0,0,1,2.051,2.465,8.589,8.589,0,0,1,.738,3.734,9.622,9.622,0,0,1-.856,4.265,6.434,6.434,0,0,1-2.406,2.686,9.387,9.387,0,0,1-3.675,1.313l-1.55.192c-.517,0-1.2.1-2.051.118s-2.007,0-3.468,0Zm0-14.507h3.985a5.328,5.328,0,0,0,3.9-1.313,5.062,5.062,0,0,0,1.343-3.822,5.7,5.7,0,0,0-.5-2.524,3.291,3.291,0,0,0-1.682-1.594,7.852,7.852,0,0,0-3.262-.561,14.893,14.893,0,0,0-1.992.089,14.069,14.069,0,0,0-1.786.251Zm10.537,14.507a4.5,4.5,0,0,1-.413-.738c-.1-.251-.31-.679-.59-1.269-.384-.826-.753-1.741-1.107-2.76s-.738-1.992-1.136-2.952a10.228,10.228,0,0,0-1.476-2.391,2.952,2.952,0,0,0-1.889-1.122l1.638-1.269h2.952a4.708,4.708,0,0,1,1.919,1.623,16.807,16.807,0,0,1,1.476,2.716c.472,1.033.93,2.066,1.373,3.143a30.03,30.03,0,0,0,1.4,2.952c.192.339.384.679.561,1.018l.576,1Z" transform="translate(472.995 363.69)" fill="#d2d2d2"/>
        <path id="Path_25" data-name="Path 25" d="M182.63,112.086V84.68h16.234v3.675H187.5v7.837H196v3.616h-8.545v8.53h12.633v3.749Z" transform="translate(485.713 363.785)" fill="#d2d2d2"/>
        <path id="Path_26" data-name="Path 26" d="M202.54,112.086V84.68h16.116v3.675h-11.29v8.265h8.471v3.645h-8.471v11.807Z" transform="translate(497.243 363.785)" fill="#d2d2d2"/>
        <path id="Path_27" data-name="Path 27" d="M225.756,112.181H220.93V84.775h2.007a24.842,24.842,0,0,0,3.144-.148,35.607,35.607,0,0,1,4.132-.148,15.807,15.807,0,0,1,3.734.428,8.663,8.663,0,0,1,3.04,1.358,6.258,6.258,0,0,1,2.037,2.465,8.589,8.589,0,0,1,.738,3.734,9.43,9.43,0,0,1-.856,4.265,6.434,6.434,0,0,1-2.406,2.686,9.386,9.386,0,0,1-3.675,1.313l-1.476.192c-.531,0-1.21.1-2.066.118s-1.992,0-3.468,0Zm0-14.507h3.911a5.328,5.328,0,0,0,3.9-1.313,5.062,5.062,0,0,0,1.343-3.822,5.7,5.7,0,0,0-.5-2.524,3.291,3.291,0,0,0-1.564-1.491,7.822,7.822,0,0,0-3.247-.561,15.115,15.115,0,0,0-2.007.089,14.069,14.069,0,0,0-1.786.251Zm10.537,14.507a4.5,4.5,0,0,1-.413-.738c-.1-.251-.3-.679-.59-1.269-.369-.826-.738-1.741-1.107-2.76s-.738-1.992-1.136-2.952a9.313,9.313,0,0,0-1.476-2.391,2.952,2.952,0,0,0-1.889-1.122l1.653-1.269h2.952a4.752,4.752,0,0,1,1.933,1.623,19.366,19.366,0,0,1,1.476,2.716c.472,1.033.93,2.066,1.372,3.143a26.955,26.955,0,0,0,1.4,2.952c.177.339.369.679.561,1.018s.369.679.561,1Z" transform="translate(508.067 363.69)" fill="#d2d2d2"/>
        <path id="Path_28" data-name="Path 28" d="M242.85,112.086V84.68h16.234v3.675H247.705v7.837h8.5v3.616h-8.5v8.53h12.633v3.749Z" transform="translate(520.686 363.785)" fill="#d2d2d2"/>
        <path id="Path_29" data-name="Path 29" d="M270.153,112.478a21.3,21.3,0,0,1-3.453-.266,18.934,18.934,0,0,1-2.8-.649,9.03,9.03,0,0,1-1.7-.694l.915-3.867a10.611,10.611,0,0,0,1.756.8,16.617,16.617,0,0,0,2.361.635,12.677,12.677,0,0,0,2.583.266,6.833,6.833,0,0,0,3.66-.8,2.819,2.819,0,0,0,1.254-2.583,3.291,3.291,0,0,0-.635-2.037,6.7,6.7,0,0,0-1.948-1.579c-.856-.5-1.963-1.063-3.291-1.7a20.533,20.533,0,0,1-3.247-1.978,10.33,10.33,0,0,1-2.538-2.73,7.379,7.379,0,0,1-.221-6.966,6.316,6.316,0,0,1,2.066-2.228,9.269,9.269,0,0,1,2.952-1.225,14.965,14.965,0,0,1,3.468-.4,15.466,15.466,0,0,1,4.324.517,10.332,10.332,0,0,1,2.42.959l-.885,3.749a10.523,10.523,0,0,0-2.273-1.092,10.966,10.966,0,0,0-3.483-.472,7.866,7.866,0,0,0-2.42.339A3.852,3.852,0,0,0,267.29,89.5a2.376,2.376,0,0,0-.649,1.712,3.6,3.6,0,0,0,.531,2.007,5.062,5.062,0,0,0,1.682,1.476q1.151.738,2.952,1.682c.974.472,1.9.989,2.8,1.476a14.021,14.021,0,0,1,2.435,1.786,7.631,7.631,0,0,1,1.712,2.243,6.449,6.449,0,0,1,.62,2.952,6.789,6.789,0,0,1-4.427,6.745,12.854,12.854,0,0,1-4.8.9Z" transform="translate(531.843 363.689)" fill="#d2d2d2"/>
        <path id="Path_30" data-name="Path 30" d="M282.05,112.086V84.68h4.841V96.487H298.8V84.68h4.8v27.406h-4.8V100.058h-11.91v12.028Z" transform="translate(543.74 363.785)" fill="#d2d2d2"/>
      </g>
    </g>
  </g>
</svg>
