<?xml version="1.0" encoding="utf-8"?><svg id="Layer_1" data-name="Layer 1" xmlns="http://www.w3.org/2000/svg" viewBox="0 0 303.67 109.69"><defs><style>.cls-1{fill:#f9dc5c;}.cls-2{fill:#323330;}.cls-3{fill:gray;}</style></defs><title>javascripttutorial</title><circle class="cls-1" cx="54.84" cy="54.84" r="54.84"/><path class="cls-2" d="M168.33,312.66l5.92-3.59c1.15,2,2.19,3.74,4.68,3.74s3.9-.93,3.9-4.57V283.48h7.28v24.86c0,7.54-4.42,11-10.86,11C173.42,319.31,170,316.3,168.33,312.66Z" transform="translate(-137.27 -245.16)"/><path class="cls-2" d="M194.06,311.88l5.93-3.44c1.56,2.55,3.59,4.42,7.18,4.42,3,0,4.94-1.5,4.94-3.58,0-2.5-2-3.38-5.31-4.84l-1.82-.78c-5.25-2.24-8.73-5-8.73-11,0-5.46,4.16-9.62,10.66-9.62,4.63,0,8,1.61,10.35,5.82l-5.67,3.64c-1.25-2.24-2.6-3.12-4.68-3.12a3.17,3.17,0,0,0-3.49,3.12c0,2.18,1.36,3.07,4.48,4.42l1.82.78c6.19,2.65,9.67,5.36,9.67,11.44,0,6.55-5.15,10.14-12.06,10.14S196.2,316.09,194.06,311.88Z" transform="translate(-137.27 -245.16)"/><path d="M263.23,295.24l4.56-2.76c.88,1.56,1.68,2.88,3.6,2.88s3-.72,3-3.52v-19H280v19.12c0,5.8-3.4,8.44-8.36,8.44A8.69,8.69,0,0,1,263.23,295.24Z" transform="translate(-137.27 -245.16)"/><path d="M291.27,287a5.33,5.33,0,0,0-3.88,1.56l-3-3.2c1.6-1.56,3.4-2.8,7.4-2.8,4.36,0,7.68,2.36,7.68,7.72V300h-5.36l.12-2.36a5.38,5.38,0,0,1-5,2.72c-3.12,0-6-1.4-6-5.36,0-3.64,2.76-5.12,7-5.12h4C294,287.92,293.07,287,291.27,287Zm-.84,6c-1.36,0-2,.6-2,1.56s.8,1.52,2.32,1.52c2.2,0,3.32-1,3.32-2.4v-.68Z" transform="translate(-137.27 -245.16)"/><path d="M301,283h6l2.4,5.08a26.7,26.7,0,0,1,1.4,4.52,27.3,27.3,0,0,1,1.32-4.52l2.32-5.08h5.48l-9.12,17.4h-.52Z" transform="translate(-137.27 -245.16)"/><path d="M328.59,287a5.33,5.33,0,0,0-3.88,1.56l-3-3.2c1.6-1.56,3.4-2.8,7.4-2.8,4.36,0,7.68,2.36,7.68,7.72V300h-5.36l.12-2.36a5.38,5.38,0,0,1-5,2.72c-3.12,0-6-1.4-6-5.36,0-3.64,2.76-5.12,7-5.12h4C331.35,287.92,330.39,287,328.59,287Zm-.84,6c-1.36,0-2,.6-2,1.56s.8,1.52,2.32,1.52c2.2,0,3.32-1,3.32-2.4v-.68Z" transform="translate(-137.27 -245.16)"/><path d="M339.27,294.64l4.56-2.64c1.2,2,2.76,3.4,5.52,3.4,2.32,0,3.8-1.16,3.8-2.76,0-1.92-1.52-2.6-4.08-3.72l-1.4-.6c-4-1.72-6.72-3.88-6.72-8.44,0-4.2,3.2-7.4,8.2-7.4,3.56,0,6.12,1.24,8,4.48l-4.36,2.8c-1-1.72-2-2.4-3.6-2.4a2.44,2.44,0,0,0-2.68,2.4c0,1.68,1,2.36,3.44,3.4l1.4.6c4.76,2,7.44,4.12,7.44,8.8,0,5-4,7.8-9.28,7.8S340.91,297.88,339.27,294.64Z" transform="translate(-137.27 -245.16)"/><path d="M361.79,291.44c0-5.16,4-8.84,9.32-8.84a8.32,8.32,0,0,1,7.16,3.4l-3.84,3.12a4,4,0,0,0-3.32-1.8c-2.44,0-3.8,1.72-3.8,4.12s1.36,4.24,3.8,4.24a4.48,4.48,0,0,0,3.44-1.6l3.64,3.2a8.65,8.65,0,0,1-7.08,3.08C365.79,300.36,361.79,296.68,361.79,291.44Z" transform="translate(-137.27 -245.16)"/><path d="M381.47,283h5.4l-.08,3.08a5.13,5.13,0,0,1,5-3.44,5.45,5.45,0,0,1,2.64.68l-1.72,4.92a4.71,4.71,0,0,0-2.08-.52c-2.44,0-3.76,1.12-3.76,4.76V300h-5.4Z" transform="translate(-137.27 -245.16)"/><path d="M396.63,276.72a3.37,3.37,0,0,1,3.44-3.36,3.38,3.38,0,1,1,0,6.76A3.38,3.38,0,0,1,396.63,276.72Zm.72,6.24h5.4v17h-5.4Z" transform="translate(-137.27 -245.16)"/><path d="M407.19,283h5.4l-.12,2.64a5.89,5.89,0,0,1,5.48-3c4.12,0,7.59,3.6,7.59,8.84s-3.55,8.92-7.71,8.92c-2.6,0-4.36-1.08-5.24-2.64v10.76h-5.4Zm12.8,8.48c0-2.52-1.44-4.08-3.72-4.08s-3.84,1.56-3.84,4.08c0,2.68,1.52,4.2,3.84,4.2S420,294.12,420,291.44Z" transform="translate(-137.27 -245.16)"/><path d="M430.27,293.6v-6.16h-2.52V283h2.52v-8.88h5.36V283H440v4.48h-4.36v6.32c0,1.72.56,2.08,1.4,2.08a3.3,3.3,0,0,0,1.88-.72l2,3.76a7.17,7.17,0,0,1-4.76,1.56C432.75,300.44,430.27,298.72,430.27,293.6Z" transform="translate(-137.27 -245.16)"/><path class="cls-3" d="M267.46,318.68h-4.08V316.1h11.09v2.58H270.4v11.7h-2.94Z" transform="translate(-137.27 -245.16)"/><path class="cls-3" d="M287.07,325.21V316.1H290V325c0,2.08.9,2.88,2.86,2.88s2.81-.8,2.81-2.88V316.1h2.94v9.11c0,3.61-2.5,5.35-5.75,5.35S287.07,328.82,287.07,325.21Z" transform="translate(-137.27 -245.16)"/><path class="cls-3" d="M315.29,318.68h-4.07V316.1h11.09v2.58h-4.08v11.7h-2.94Z" transform="translate(-137.27 -245.16)"/><path class="cls-3" d="M333.65,323.24a7.39,7.39,0,1,1,7.39,7.32A7.23,7.23,0,0,1,333.65,323.24Zm11.76,0a4.38,4.38,0,1,0-4.37,4.7A4.39,4.39,0,0,0,345.41,323.24Z" transform="translate(-137.27 -245.16)"/><path class="cls-3" d="M372,330.38h-3.4l-2.35-3.62a4.76,4.76,0,0,1-.84.07h-1v3.55h-2.94V316.1h3.95c4,0,6.38,1.91,6.38,5.39a4.44,4.44,0,0,1-2.75,4.43Zm-6.68-6.12c2.4,0,3.45-.75,3.45-2.77s-1.09-2.81-3.45-2.81h-.92v5.58Z" transform="translate(-137.27 -245.16)"/><path class="cls-3" d="M384.89,316.1h2.94v14.28h-2.94Z" transform="translate(-137.27 -245.16)"/><path class="cls-3" d="M406.58,316h.25l6.53,14.41h-3.08l-.68-1.62h-5.79l-.67,1.62H400.3Zm2,10.33-1-2.48c-.42-1-.86-2.56-.86-2.56a25.23,25.23,0,0,1-.84,2.56l-1,2.48Z" transform="translate(-137.27 -245.16)"/><path class="cls-3" d="M425.8,316.1h2.94v11.69h6.46v2.59h-9.4Z" transform="translate(-137.27 -245.16)"/></svg>