<svg xmlns="http://www.w3.org/2000/svg" width="46" height="46" viewBox="0 0 46 46">
  <g id="Group_362" data-name="Group 362" transform="translate(-291 54)">
    <g id="JavaScript-Tutorial" transform="translate(291 -54)">
      <rect id="Rectangle_212" data-name="Rectangle 212" width="46" height="46" rx="23" fill="#f7df1e"/>
      <path id="Path_12" data-name="Path 12" d="M183.041,299.649a4.3,4.3,0,0,0,3.895,2.4c1.636,0,2.681-.818,2.681-1.947,0-1.354-1.074-1.833-2.874-2.621l-.987-.423c-2.849-1.214-4.742-2.734-4.742-5.949,0-2.961,2.256-5.215,5.782-5.215a5.836,5.836,0,0,1,5.615,3.161l-3.074,1.974a2.685,2.685,0,0,0-2.541-1.692,1.718,1.718,0,0,0-1.889,1.692c0,1.184.734,1.664,2.428,2.4l.987.423c3.355,1.439,5.249,2.905,5.249,6.2,0,3.555-2.792,5.5-6.542,5.5-3.667,0-6.036-1.747-7.195-4.038Zm-13.947.342c.62,1.1,1.184,2.031,2.541,2.031,1.3,0,2.115-.508,2.115-2.481V286.115H177.7v13.478c0,4.088-2.4,5.949-5.9,5.949a6.129,6.129,0,0,1-5.923-3.606Z" transform="translate(-158.038 -272.016)"/>
    </g>
  </g>
</svg>
