<svg xmlns="http://www.w3.org/2000/svg" xmlns:xlink="http://www.w3.org/1999/xlink" width="271.638" height="113.561" viewBox="0 0 271.638 113.561">
  <defs>
    <linearGradient id="linear-gradient" x1="-0.056" y1="0.5" x2="1.094" y2="0.5" gradientUnits="objectBoundingBox">
      <stop offset="0" stop-color="#ff24bd"/>
      <stop offset="1" stop-color="#f90"/>
    </linearGradient>
  </defs>
  <g id="Group_5" data-name="Group 5" transform="translate(-44.661 -18.719)">
    <g id="Group_4" data-name="Group 4">
      <g id="Group_2" data-name="Group 2">
        <g id="Group_1" data-name="Group 1" transform="translate(31 -233.571)">
          <g id="Group_366" data-name="Group 366" transform="translate(13.661 252.29)">
            <g id="Group_365" data-name="Group 365" transform="translate(0 0)">
              <circle id="Ellipse_4" data-name="Ellipse 4" cx="56.781" cy="56.781" r="56.781" fill="#ffd35a"/>
            </g>
          </g>
          <path id="Path_1" data-name="Path 1" d="M38.778-23.676q2.2,1.53,2.878,1.919,1.011.57,2.722,1.322L41.112-13.85a38.089,38.089,0,0,1-4.874-2.839,41.756,41.756,0,0,1-3.371-2.476,24.6,24.6,0,0,1-9.749,1.685q-8.66,0-13.664-4.511Q3.542-27.332,3.542-37q0-9.386,5.173-14.584t14.455-5.2q9.464,0,14.61,5.082t5.147,14.546Q42.926-28.732,38.778-23.676Zm-9-6.015q1.4-2.515,1.4-7.519,0-5.756-2.139-8.219a7.4,7.4,0,0,0-5.9-2.463,7.155,7.155,0,0,0-5.678,2.515q-2.178,2.515-2.178,7.856,0,6.223,2.126,8.738a7.233,7.233,0,0,0,5.834,2.515A10.5,10.5,0,0,0,25.5-26.5a14.541,14.541,0,0,0-4.667-2.7l1.841-4.226a9.988,9.988,0,0,1,2.424.7,31.107,31.107,0,0,1,3.384,2.178Q29.081-30.132,29.781-29.691ZM73.3-56.138H85.017v22.646a19.073,19.073,0,0,1-1.05,6.361A13.74,13.74,0,0,1,80.674-21.9a13.134,13.134,0,0,1-4.706,3.148,23.683,23.683,0,0,1-8.219,1.27,51.706,51.706,0,0,1-6.054-.389,15.844,15.844,0,0,1-5.484-1.542,13.731,13.731,0,0,1-4.032-3.278,12.039,12.039,0,0,1-2.5-4.379,22.7,22.7,0,0,1-1.089-6.426V-56.138H60.308v23.185A6.619,6.619,0,0,0,62.032-28.1a6.414,6.414,0,0,0,4.784,1.749,6.433,6.433,0,0,0,4.758-1.723A6.6,6.6,0,0,0,73.3-32.953Zm19.274,0h11.771v38.01H92.572Zm18.548,0h33.24v7.6L123.023-26.295h22.115v8.167H109.072V-26.01l21.114-22.013H111.12Z" transform="translate(140.162 344.388)" fill="url(#linear-gradient)"/>
          <path id="Path_2" data-name="Path 2" d="M22.6-56.053h13.32v23.367q0,7.359-1.306,11.2a12.854,12.854,0,0,1-5.252,6.509,17.685,17.685,0,0,1-10.107,2.668q-6.513,0-10.092-1.76a12.693,12.693,0,0,1-5.53-5.149,19.364,19.364,0,0,1-2.3-8.376l12.7-1.731a14.533,14.533,0,0,0,.5,4.225,4.6,4.6,0,0,0,1.584,2.23,3.634,3.634,0,0,0,2.171.557,3.584,3.584,0,0,0,3.271-1.656Q22.6-25.626,22.6-29.554ZM42.466-27.272l12.645-.792a9.646,9.646,0,0,0,1.672,4.694,7.027,7.027,0,0,0,5.868,2.611,6.5,6.5,0,0,0,4.386-1.335,4,4,0,0,0,1.54-3.1,3.948,3.948,0,0,0-1.467-2.993Q65.643-29.5,60.3-30.675,51.561-32.641,47.835-35.9a10.5,10.5,0,0,1-3.755-8.3A11.277,11.277,0,0,1,46-50.464a12.747,12.747,0,0,1,5.78-4.635q3.858-1.687,10.577-1.687,8.244,0,12.572,3.066t5.149,9.755l-12.528.733a6.734,6.734,0,0,0-2.1-4.225,6.737,6.737,0,0,0-4.415-1.32,5.328,5.328,0,0,0-3.491.983A3.012,3.012,0,0,0,56.372-45.4a2.4,2.4,0,0,0,.968,1.848q.939.851,4.459,1.584,8.714,1.878,12.484,3.8A13.122,13.122,0,0,1,79.77-33.4a12.087,12.087,0,0,1,1.716,6.366A13.636,13.636,0,0,1,79.2-19.409a14.32,14.32,0,0,1-6.4,5.3,25.842,25.842,0,0,1-10.357,1.8q-10.973,0-15.2-4.225A16.663,16.663,0,0,1,42.466-27.272Z" transform="translate(28.513 345.993)" fill="#303030"/>
        </g>
      </g>
      <g id="Group_3" data-name="Group 3">
        <g id="Group_1-2" data-name="Group 1" transform="translate(31 -233.571)">
          <g id="Group_366-2" data-name="Group 366" transform="translate(13.661 252.29)">
            <g id="Group_365-2" data-name="Group 365" transform="translate(0 0)">
              <circle id="Ellipse_4-2" data-name="Ellipse 4" cx="56.781" cy="56.781" r="56.781" fill="#ffce5a"/>
            </g>
          </g>
          <path id="Path_1-2" data-name="Path 1" d="M38.778-23.676q2.2,1.53,2.878,1.919,1.011.57,2.722,1.322L41.112-13.85a38.089,38.089,0,0,1-4.874-2.839,41.756,41.756,0,0,1-3.371-2.476,24.6,24.6,0,0,1-9.749,1.685q-8.66,0-13.664-4.511Q3.542-27.332,3.542-37q0-9.386,5.173-14.584t14.455-5.2q9.464,0,14.61,5.082t5.147,14.546Q42.926-28.732,38.778-23.676Zm-9-6.015q1.4-2.515,1.4-7.519,0-5.756-2.139-8.219a7.4,7.4,0,0,0-5.9-2.463,7.155,7.155,0,0,0-5.678,2.515q-2.178,2.515-2.178,7.856,0,6.223,2.126,8.738a7.233,7.233,0,0,0,5.834,2.515A10.5,10.5,0,0,0,25.5-26.5a14.541,14.541,0,0,0-4.667-2.7l1.841-4.226a9.988,9.988,0,0,1,2.424.7,31.107,31.107,0,0,1,3.384,2.178Q29.081-30.132,29.781-29.691ZM73.3-56.138H85.017v22.646a19.073,19.073,0,0,1-1.05,6.361A13.74,13.74,0,0,1,80.674-21.9a13.134,13.134,0,0,1-4.706,3.148,23.683,23.683,0,0,1-8.219,1.27,51.706,51.706,0,0,1-6.054-.389,15.844,15.844,0,0,1-5.484-1.542,13.731,13.731,0,0,1-4.032-3.278,12.039,12.039,0,0,1-2.5-4.379,22.7,22.7,0,0,1-1.089-6.426V-56.138H60.308v23.185A6.619,6.619,0,0,0,62.032-28.1a6.414,6.414,0,0,0,4.784,1.749,6.433,6.433,0,0,0,4.758-1.723A6.6,6.6,0,0,0,73.3-32.953Zm19.274,0h11.771v38.01H92.572Zm18.548,0h33.24v7.6L123.023-26.295h22.115v8.167H109.072V-26.01l21.114-22.013H111.12Z" transform="translate(138.162 344.388)" fill="url(#linear-gradient)"/>
          <path id="Path_2-2" data-name="Path 2" d="M17.636-56.224H27.845v17.91a28.134,28.134,0,0,1-1,8.584,9.852,9.852,0,0,1-4.025,4.989A13.555,13.555,0,0,1,15.073-22.7a17.905,17.905,0,0,1-7.736-1.349A9.728,9.728,0,0,1,3.1-27.991a14.842,14.842,0,0,1-1.765-6.42l9.737-1.327a11.139,11.139,0,0,0,.382,3.238,3.525,3.525,0,0,0,1.214,1.709,2.785,2.785,0,0,0,1.664.427,2.747,2.747,0,0,0,2.507-1.269,8.455,8.455,0,0,0,.8-4.28ZM32.86-34.164l9.692-.607a7.394,7.394,0,0,0,1.282,3.6,5.386,5.386,0,0,0,4.5,2A4.98,4.98,0,0,0,51.693-30.2a3.066,3.066,0,0,0,1.181-2.372,3.026,3.026,0,0,0-1.124-2.294q-1.124-1.012-5.217-1.911-6.7-1.507-9.557-4A8.05,8.05,0,0,1,34.1-47.139a8.644,8.644,0,0,1,1.473-4.8A9.77,9.77,0,0,1,40-55.493a20.683,20.683,0,0,1,8.107-1.293q6.319,0,9.636,2.35t3.946,7.477l-9.6.562a5.161,5.161,0,0,0-1.608-3.238,5.164,5.164,0,0,0-3.384-1.012,4.084,4.084,0,0,0-2.676.753,2.309,2.309,0,0,0-.9,1.833,1.836,1.836,0,0,0,.742,1.417,8.347,8.347,0,0,0,3.418,1.214,42.76,42.76,0,0,1,9.568,2.912,10.058,10.058,0,0,1,4.205,3.654,9.265,9.265,0,0,1,1.315,4.88,10.452,10.452,0,0,1-1.754,5.847,10.976,10.976,0,0,1-4.9,4.059A19.807,19.807,0,0,1,48.174-22.7q-8.41,0-11.648-3.238A12.772,12.772,0,0,1,32.86-34.164Z" transform="translate(38.392 348.812)" fill="#3a3a3a"/>
        </g>
      </g>
    </g>
  </g>
</svg>
